<svg width="240" height="324" viewBox="0 0 240 324" fill="none" xmlns="http://www.w3.org/2000/svg">
<path fill-rule="evenodd" clip-rule="evenodd" d="M192.496 217.789C192.496 216.078 190.13 213.043 190.125 211.494C192.115 211.138 193.778 208.442 193.337 206.753C192.561 206.16 190.526 204.991 189.684 204.445C184.556 204.601 186.505 197.464 185.924 193.836C185.34 190.287 184.906 186.575 184.051 183.006C182.532 180.15 181.819 176.948 180.367 174.106C179.719 173.164 178.671 172.301 178.357 171.206C175.181 167.736 170.809 165.656 167.21 162.717C168.607 162.269 168.514 160.385 168.424 159.175C168.748 157.597 168.401 155.617 166.962 154.727C166.476 153.142 164.35 152.589 163.107 153.599C162.29 149.938 159.096 147.716 155.749 146.358C155.752 146.347 155.755 146.336 155.758 146.326C152.383 144.986 148.338 144.318 144.971 145.071C146.748 125.257 131.578 124.53 123.88 126.195C119.942 127.047 114.033 129.698 112.691 133.384C111.933 135.465 109.758 142.177 109.449 144.318C103.57 140.962 96.7546 136.536 91.6554 143.293C90.6343 144.47 89.5045 145.345 87.9766 145.749C83.2062 146.988 76.8745 147.029 74.1631 151.894C72.5424 154.908 74 156.894 73.5645 159.909C52.0907 174.994 34.1454 230.57 38.1747 256.425C39.144 265.677 43.8764 282.055 55.5572 280.013C61.5149 286.532 161.513 286.532 171.824 280.013C180.312 282.234 188.936 278.796 192.496 270.664C197.016 259.512 192.226 247.469 191.377 236.03C190.861 233.142 190.094 230.849 189.684 227.893C189.513 226.661 190.103 224.611 189.684 223.475C189.881 222.736 192.496 219.499 192.496 217.789Z" fill="white"/>
<path fill-rule="evenodd" clip-rule="evenodd" d="M145.228 138.667C145.464 139.679 145.249 140.819 145.288 141.858C145.326 142.85 145.443 143.837 145.615 144.814C147.428 143.86 149.571 143.738 151.637 144.045C154.31 144.442 157.403 145.321 159.497 147.108C160.015 147.549 160.443 148.072 160.802 148.647C161.232 149.339 161.507 150.119 162.19 150.614C163.246 151.381 164.555 151.677 165.57 152.526C166.605 153.392 167.247 154.686 167.383 156.021C167.456 156.732 167.338 157.396 167.204 158.089C167.083 158.713 167.142 158.969 167.306 159.569C167.435 160.041 167.189 160.576 166.788 160.836C167.648 161.426 168.496 162.034 169.329 162.668C174.184 166.354 178.289 170.948 181.135 176.355L181.204 176.489L181.283 176.65C181.977 178.076 183.791 182.243 184.017 183.18C184.178 183.669 184.334 184.16 184.479 184.654C184.862 185.964 185.187 187.29 185.457 188.626L185.529 188.991C185.748 190.114 186.124 191.444 186.063 192.64C186.693 195.907 187.252 199.188 187.728 202.483C187.791 202.914 187.619 203.265 187.352 203.498C187.99 203.6 188.623 203.726 189.25 203.853L189.613 203.93L189.796 203.97C191.1 204.264 192.388 204.693 193.242 205.789C194.164 206.975 194.182 208.499 193.257 209.693C192.471 210.707 191.324 211.189 190.126 211.494C189.89 211.553 189.651 211.608 189.412 211.656C189.252 211.69 189.146 211.47 189.298 211.386L189.552 211.245L189.899 211.055C190.802 210.557 191.739 209.995 192.239 209.097C192.917 207.878 192.38 206.749 191.216 206.13C190.242 205.611 189.036 205.478 187.954 205.3L187.507 205.227C186.376 205.046 185.222 204.929 184.08 205.058C183.081 205.172 182.069 205.513 181.261 206.123L181.187 206.182L181.109 206.247C180.401 206.86 179.384 208.239 180.719 208.636C181.739 208.938 182.982 208.863 184.055 208.922L184.194 208.93C185.092 208.991 186.03 208.991 186.938 209.099C187.263 209.137 187.585 209.19 187.9 209.264C188.802 209.477 188.491 210.678 187.697 210.762C187.502 210.784 187.304 210.794 187.105 210.798C186.585 211.189 185.867 211.367 185.252 211.61C184.665 211.842 184.076 212.073 183.482 212.299C183.993 212.322 184.504 212.364 185.014 212.428C185.178 212.447 185.18 212.669 185.014 212.686C183.788 212.81 182.563 212.946 181.342 213.117C179.451 213.379 177.573 213.73 175.737 214.264C174.395 214.657 173.07 215.124 171.784 215.669L171.395 215.837L171.235 215.907C170.068 216.413 168.559 217.005 167.888 218.119C167.537 218.701 167.383 219.599 167.878 220.155C168.406 220.754 169.514 220.685 170.254 220.714L170.314 220.717C171.881 220.793 173.451 220.803 175.02 220.749C178.31 220.633 181.602 220.273 184.832 219.641C185.428 219.525 185.685 220.419 185.085 220.559C181.275 221.444 177.423 221.93 173.513 221.953L173.085 221.953C171.562 222.245 170.069 222.679 168.588 223.169L168.292 223.268C167.417 223.564 165.923 223.858 165.408 224.726C165.066 225.303 165.186 225.699 165.524 225.967C166.12 226.438 167.387 226.527 168.004 226.55C170.476 226.643 172.95 226.66 175.424 226.607C176.66 226.58 177.896 226.536 179.132 226.472C180.34 226.409 181.631 226.229 182.835 226.345C183.353 226.396 183.526 227.157 182.964 227.298C181.479 227.675 179.814 227.642 178.279 227.69L178.103 227.696C176.455 227.755 174.805 227.78 173.157 227.776C171.743 227.771 170.329 227.742 168.916 227.69L167.667 227.64L167.445 227.63C166.78 227.594 166.1 227.517 165.509 227.243C164.964 228.156 165.372 229.38 166.075 230.103C166.745 230.792 167.711 231.13 168.636 231.342C168.723 231.361 168.809 231.379 168.896 231.397C170.928 231.811 172.999 231.775 174.9 232.709C176.499 233.495 177.964 234.805 179.755 235.116C181.356 235.395 182.52 234.689 183.374 233.383C183.421 233.311 183.467 233.24 183.512 233.167C184.183 232.085 184.667 230.894 185.375 229.832C185.736 229.292 186.144 228.772 186.643 228.349C186.866 228.156 188.434 227.324 188.679 227.074C189.733 225.992 188.8 223.716 189.074 222.359C189.395 220.78 190.783 220.225 191.616 219.001C193.198 216.672 188.858 214.49 190.156 211.944C190.173 211.912 190.194 211.889 190.221 211.874C190.335 211.813 190.517 211.889 190.507 212.039C190.363 213.937 192.171 215.243 192.824 216.887C193.568 218.758 192.38 219.891 191.168 221.14C189.613 222.744 190.707 224.54 190.361 226.472C190.316 226.725 190.243 226.948 190.148 227.148C190.414 227.313 190.619 227.586 190.664 227.967C191.197 232.49 191.771 236.999 192.707 241.46L192.907 242.407L193.175 243.671C193.842 246.833 194.465 250.008 194.583 253.24C194.955 255.968 195.102 258.719 194.882 261.465C194.214 269.824 189.543 278.57 181.056 281.136C179.092 281.73 177.008 281.884 174.993 281.468C174.302 281.326 173.335 281.013 172.466 280.54C172.518 281.097 172.559 281.654 172.576 282.21C172.862 282.528 172.992 283.01 172.829 283.422C172.137 283.194 171.508 282.833 170.941 282.34L170.847 282.256C170.511 281.008 170.413 279.642 170.364 278.327L170.352 277.953C170.339 277.589 170.331 277.232 170.318 276.883C170.246 274.713 170.297 272.538 170.408 270.37L170.491 268.773C170.68 265.05 170.833 261.335 170.73 257.602C170.612 253.305 170.244 249.027 169.783 244.754C169.544 242.549 169.274 240.349 168.997 238.149C168.776 236.378 168.404 234.472 168.397 232.646C166.975 232.341 165.579 231.758 164.704 230.564C163.777 229.298 163.64 227.679 164.463 226.381C163.667 225.291 164.32 224.263 165.304 223.57C163.792 222.723 162.949 220.41 162.725 218.802C162.573 217.699 162.524 216.048 162.995 214.807C162.319 214.831 161.643 214.901 160.967 215.017C160.185 215.154 159.419 215.355 158.662 215.604L158.279 215.731C158.086 215.796 157.868 215.872 157.652 215.962C159.019 218.223 157.263 220.273 155.011 220.859C154.583 220.97 154.145 221.049 153.704 221.112C152.709 221.25 151.692 221.292 150.706 221.383C148.817 221.556 146.918 221.803 145.023 221.884C144.606 221.903 144.338 221.708 144.211 221.438C144.207 221.434 144.205 221.431 144.205 221.427C144.161 221.355 144.131 221.279 144.12 221.199C144.127 221.205 144.135 221.209 144.142 221.214C144.051 220.706 144.355 220.089 145.023 220.015C147.759 219.707 150.532 219.692 153.277 219.466L153.453 219.451C154.314 219.377 155.329 219.24 156.011 218.694C156.645 218.187 156.701 217.528 156.448 216.932C156.444 216.946 156.44 216.963 156.437 216.978C156.418 217.096 156.256 217.092 156.203 217.01C156.045 216.769 156.004 216.532 156.045 216.304C155.854 216.084 155.624 215.89 155.375 215.74C154.27 215.068 152.816 214.884 151.559 214.685C150.184 214.467 148.798 214.368 147.41 214.303C144.678 214.173 141.938 214.396 139.251 214.886C139.139 214.905 139.093 214.749 139.202 214.713C140.25 214.366 141.321 214.074 142.405 213.844C142.38 213.839 142.354 213.835 142.329 213.829C142.234 213.806 142.166 213.69 142.198 213.597C142.202 213.582 142.209 213.567 142.215 213.554C141.754 213.343 141.562 212.633 142.12 212.345C143.858 211.447 145.899 211.041 147.807 210.671C149.639 210.318 151.489 210.071 153.343 209.852C156.476 209.484 159.892 209.492 162.906 208.503L163.03 208.461C164.258 208.038 165.724 207.18 165.809 205.73C165.936 203.538 162.68 204.109 161.324 204.162C157.612 204.304 153.904 204.561 150.209 204.959C149.455 205.039 148.701 205.121 147.947 205.206C146.791 205.335 145.633 205.47 144.48 205.614C143.835 205.694 143.176 205.8 142.513 205.901C142.306 205.952 142.103 205.988 141.9 206.007C141.885 206.009 141.873 206.005 141.862 205.999C140.897 206.134 139.927 206.237 138.985 206.208C138.877 206.206 138.809 206.036 138.923 205.986C140.14 205.47 141.495 205.166 142.853 204.927C143.694 204.299 144.71 203.796 145.545 203.31C146.69 202.642 148.002 201.66 149.301 201.26C149.886 200.799 150.549 200.43 151.16 200.178C150.985 199.905 150.921 199.527 150.953 199.208C151.069 198.065 151.984 197.426 153.04 197.202C153.368 197.135 153.746 197.084 154.15 197.065C154.158 196.851 154.253 196.642 154.464 196.486L154.527 196.438L154.571 196.403C155.28 195.827 156.688 194.205 154.992 194.087C154.093 194.023 153.332 194.683 152.616 195.129C151.128 196.057 149.69 196.103 147.991 195.873L147.228 195.763L147.101 195.746C145.872 195.585 144.627 195.562 143.941 196.815C143.206 198.155 142.948 199.377 141.465 200.115C140.047 200.818 138.473 200.958 137.172 201.926C135.778 202.961 134.73 204.415 133.589 205.705C131.073 208.545 128.193 211.054 125.227 213.413L124.699 213.831C121.968 215.991 119.148 218.117 116.09 219.781C116.069 219.791 116.047 219.796 116.028 219.796C115.946 219.787 115.885 219.681 115.959 219.61C119.531 216.137 123.71 213.322 127.38 209.942C129.006 208.444 130.555 206.867 132.044 205.231C133.346 203.796 134.499 202.184 136.016 200.962C136.754 200.368 137.55 199.914 138.442 199.597C139.274 199.299 140.208 199.151 140.975 198.694C142.477 197.802 142.331 195.689 143.833 194.729C145.121 193.906 146.69 194.207 148.118 194.402L148.289 194.425C149.214 194.548 150.171 194.651 151.054 194.286C151.929 193.924 152.632 193.248 153.513 192.889C154.741 192.383 156.482 192.504 157.112 193.854C157.713 195.144 156.892 196.31 155.933 197.166C157.24 197.403 158.388 198.035 158.485 199.324C159.444 199.292 160.401 199.258 161.36 199.225C164.7 199.109 168.057 198.884 171.4 198.944C171.323 198.603 171.289 198.252 171.285 197.895C171.283 197.697 171.292 197.498 171.306 197.295C171.332 196.948 171.56 196.739 171.898 196.703L172.653 196.623L172.906 196.598C174.32 196.464 175.901 196.436 176.979 197.371C177.558 197.876 178.025 199.039 177.742 199.814C178.401 200.041 179.028 200.33 179.601 200.696C180.735 200.315 181.927 200.358 183.068 200.755L183.203 200.803C184.014 201.101 185.163 201.665 185.604 202.47C184.534 195.217 183.093 188.026 181.281 180.921C180.124 178.084 178.663 175.372 176.89 172.869C172.426 166.563 165.995 162.226 160.219 157.24C159.71 157.801 159.161 158.335 158.647 158.849L158.43 159.068C157.384 160.127 156.293 161.141 155.178 162.127C152.848 164.188 150.396 166.09 147.96 168.022C143.052 171.918 138.614 176.055 134.921 181.141C134.855 181.233 134.671 181.179 134.722 181.057C137.255 175.034 142.505 170.455 147.275 166.207C149.783 163.972 152.35 161.792 154.761 159.453C155.886 158.362 156.975 157.233 158.002 156.051L158.258 155.754C158.93 154.967 160.503 152.565 161.542 154.298C161.76 154.661 161.751 155.124 161.542 155.487C161.247 156.003 160.872 156.495 160.462 156.967C161.92 157.76 163.348 158.598 164.744 159.484C164.664 159.057 164.684 158.585 164.758 158.113L164.783 157.963L164.885 157.377C165.03 156.513 165.105 155.71 164.558 154.868C163.873 153.814 162.581 153.485 161.552 152.877C160.367 152.175 159.748 151.236 159.113 150.044C157.898 147.763 155.152 146.849 152.792 146.115L152.495 146.023C150.315 145.347 147.956 144.985 145.775 145.634C145.98 146.587 146.248 147.526 146.582 148.44C146.938 149.414 147.751 150.496 147.668 151.547C147.61 152.275 146.738 153.053 146.014 152.497C144.988 151.71 144.783 150.428 144.509 149.207C144.243 148.026 144.073 146.816 144.001 145.608C143.931 144.443 143.986 143.279 144.129 142.123L144.239 141.273L144.266 141.076C144.386 140.218 144.564 139.316 145.047 138.643C145.093 138.579 145.207 138.577 145.228 138.667ZM115.476 133.839C115.491 133.908 115.502 133.976 115.511 134.044C115.582 134.333 115.608 134.611 115.6 134.891C115.604 134.992 115.597 135.093 115.578 135.193C115.54 135.522 115.461 135.86 115.354 136.229C115.126 137.015 114.865 137.791 114.573 138.555C113.996 140.067 113.315 141.509 112.473 142.892C110.953 145.389 109.02 147.463 106.741 149.255C107.174 149.612 107.597 149.983 108.02 150.348C110.067 152.11 112.06 153.953 113.989 155.844C117.416 159.203 120.773 162.624 124.052 166.128C125.669 167.855 127.257 169.606 128.835 171.368L128.887 171.427L128.943 171.494C129.503 172.172 130.624 173.79 131.46 173.53C131.882 173.398 132.327 172.768 132.614 172.468L133.144 171.915C133.321 171.73 133.496 171.544 133.668 171.356C136.751 167.976 139.669 164.466 142.409 160.798C143.746 159.008 145.038 157.184 146.284 155.329C146.924 154.375 147.552 153.413 148.168 152.442C148.763 151.504 149.245 150.495 150.122 149.795C150.766 149.281 151.658 149.752 151.496 150.595C151.24 151.922 150.322 153.044 149.599 154.166C148.873 155.293 148.13 156.409 147.37 157.514C145.907 159.64 144.381 161.721 142.801 163.761C141.44 165.517 140.02 167.228 138.561 168.905L138.163 169.361C136.594 171.151 135.054 173.05 133.321 174.683C131.768 176.145 130.073 175.719 128.659 174.298C126.871 172.501 125.211 170.558 123.49 168.696C120.051 164.974 116.577 161.281 113.066 157.627L111.912 156.425C110.567 155.02 109.227 153.606 107.922 152.166L107.753 151.979C106.265 150.304 104.752 148.206 102.636 147.354C102.483 147.292 102.539 147.075 102.704 147.106C104.059 147.356 105.189 148.039 106.241 148.854C107.187 147.289 108.031 145.639 108.767 143.951L108.295 143.746C104.918 142.286 101.112 140.814 97.4861 141.051C96.025 141.146 94.466 141.7 93.4572 142.797C92.5437 143.791 92.0876 145.131 91.2493 146.19C90.289 147.403 89.0367 147.948 87.4997 147.998L86.7523 148.02C85.8927 148.048 85.0684 148.093 84.1965 148.282C81.8341 148.795 79.3435 149.626 77.3622 151.046C76.6435 151.56 75.9015 152.269 75.554 153.049C75.2094 153.822 75.1103 154.726 75.0767 155.56C75.0605 155.967 75.1824 156.504 75.0805 156.893C75.0921 156.848 75.0974 156.872 75.0989 156.918C75.4156 157.168 75.6313 157.584 75.6548 157.997C77.6297 156.968 79.6741 156.065 81.7583 155.252C84.0788 154.346 86.4714 153.62 88.8645 152.933C91.2066 152.261 93.6581 151.983 96.0457 151.503C96.3497 151.442 96.4553 151.853 96.172 151.962C93.6626 152.926 91.2345 154.069 88.7041 154.976C86.175 155.883 83.6648 156.865 81.209 157.956C76.4622 160.065 71.8771 162.749 68.1374 166.391C64.485 169.948 61.6678 174.269 59.0476 178.614C56.4089 182.989 54.0539 187.523 51.955 192.181C47.8027 201.396 44.689 211.084 42.6391 220.981C40.6441 230.611 39.5295 240.585 39.9007 250.428C40.0769 255.104 40.6477 259.782 41.9753 264.278C42.6095 266.427 43.4035 268.526 44.4066 270.529C45.4644 272.642 46.8896 274.524 47.8555 276.672C47.935 276.849 47.9654 277.019 47.9609 277.177C52.0807 280.747 58.529 278.341 62.9876 276.209C73.2467 271.302 83.3157 265.931 92.8862 259.768C102.332 253.685 111.283 246.897 120.023 239.851C119.347 239.153 118.751 238.371 118.228 237.663C117.146 236.201 116.333 234.544 115.773 232.815C115.118 230.79 114.915 228.623 115.101 226.508L115.154 225.91C115.332 223.912 115.538 221.885 115.976 219.933C115.98 219.908 115.999 219.897 116.02 219.897C116.041 219.897 116.062 219.91 116.071 219.933C117.252 223.714 117.347 227.778 118.673 231.511C119.208 233.011 120.036 234.461 121.029 235.706C121.458 236.245 121.961 236.712 122.474 237.169C122.508 236.936 122.554 236.706 122.624 236.48L122.679 236.3C122.748 236.083 122.833 235.841 122.951 235.628C122.785 235.579 122.622 235.526 122.462 235.467C122.335 235.421 122.307 235.216 122.462 235.182C122.882 235.085 123.315 235.036 123.757 235.015C123.826 235.004 123.894 235.002 123.961 235.006C124.788 234.981 125.628 235.04 126.425 235.053C127.804 235.074 129.18 235.099 130.557 235.161C133.194 235.275 136.17 235.78 138.765 235.167C141.123 234.609 143.447 233.036 145.337 231.557C146.989 230.264 148.264 228.727 149.635 227.195C149.536 227.21 149.438 227.225 149.341 227.239L148.457 227.36C147.341 227.509 146.016 227.626 145.131 227.089C144.792 226.884 144.89 226.419 145.234 226.292C146.138 225.961 147.26 226.235 148.223 226.189C148.98 226.153 149.745 226.073 150.49 225.916C150.735 225.866 150.978 225.806 151.219 225.737C152.985 225.227 155.06 223.435 153.657 221.478C153.604 221.404 153.663 221.336 153.735 221.323C153.767 221.317 153.801 221.323 153.828 221.347C155.425 222.67 154.595 225.041 153.085 226.058C152.565 226.409 151.978 226.654 151.369 226.834C151.485 227.047 151.506 227.309 151.367 227.558C150.184 229.668 148.181 231.521 146.305 233.011C144.378 234.541 142.156 235.985 139.766 236.661C137.007 237.439 133.976 236.854 131.176 236.606C129.659 236.473 128.147 236.314 126.632 236.139C126.226 236.093 125.806 236.057 125.379 236.017C125.781 236.545 126.1 237.154 126.309 237.519C126.989 238.707 126.362 240.271 125.043 240.634C124.906 240.673 124.764 240.694 124.625 240.698C124.27 241.41 123.425 241.935 122.643 241.666C122.303 241.55 121.975 241.391 121.661 241.201C116.744 245.521 111.568 249.575 106.245 253.375C96.3721 260.421 86.024 266.857 75.2939 272.515C72.877 273.789 70.4417 275.029 67.9857 276.221L65.8717 277.241C63.5319 278.367 61.1373 279.488 58.6524 280.187C58.1679 280.323 57.6607 280.433 57.1409 280.517C57.1342 280.564 57.1325 280.608 57.1356 280.651C56.6683 280.713 56.2606 280.723 55.9125 280.68L55.8332 280.669C52.7874 280.882 49.5294 280.138 47.5699 277.912C47.2433 278.142 46.7671 278.167 46.3469 277.837C44.2336 276.178 42.9738 273.652 41.8682 271.241C40.7472 268.795 39.8686 266.246 39.2229 263.635C37.9333 258.419 37.4219 253.039 37.3949 247.674C37.2974 227 42.4731 206.144 51.4629 187.583C53.7429 182.876 56.2562 178.257 59.0462 173.832C61.8286 169.419 65.0595 165.317 69.1971 162.099C70.387 161.174 71.6248 160.328 72.9015 159.548C72.0446 159.123 71.7043 158.043 71.6443 157.083C71.5112 154.951 71.7651 152.495 73.0129 150.696C74.7632 148.172 77.8965 146.616 80.8019 145.86C82.3186 145.465 83.8874 145.235 85.4519 145.157C86.2585 145.117 87.0966 145.249 87.8935 145.162C88.5966 145.086 89.0314 144.666 89.4357 144.114C90.4716 142.7 91.146 141.216 92.6318 140.179C94.1563 139.115 96.1319 138.708 97.9684 138.819C100.108 138.947 102.06 139.791 103.944 140.76C105.645 141.634 107.296 142.603 108.904 143.637C109.199 142.945 109.477 142.249 109.736 141.55C110.237 140.194 110.673 138.796 111.026 137.395C111.385 135.975 111.332 134.099 112.415 133.031C113.357 132.102 115.17 132.467 115.476 133.839ZM188.464 228.622L188.456 228.624C186.266 229.922 185.219 233.167 184.188 234.586C184.272 235.061 184.331 235.545 184.447 235.995C184.714 237.029 185.062 238.054 185.466 239.039C186.176 240.778 187.065 242.435 187.887 244.122C188.548 245.478 189.196 246.859 189.7 248.287C189.645 248.342 189.595 248.406 189.552 248.487C189.005 249.511 188.577 249.31 187.568 249.086L187.568 249.084C186.991 247.318 186.159 245.658 185.411 243.963L185.229 243.549L185.049 243.135C184.424 241.684 183.854 240.22 183.522 238.665C183.311 237.674 183.224 236.655 183.212 235.642C182.664 236.093 182.007 236.416 181.179 236.541C179.407 236.808 177.802 235.698 176.358 234.808L176.033 234.608C175.129 234.058 174.233 233.55 173.191 233.29C172.008 232.994 170.785 232.994 169.583 232.844C169.439 232.825 169.293 232.806 169.147 232.783C169.616 234.336 169.834 236.023 170.113 237.579C170.502 239.76 170.819 241.96 171.123 244.154C171.714 248.406 172.126 252.692 172.335 256.981C172.538 261.133 172.436 265.269 172.286 269.42L172.211 271.444C172.151 273.092 172.101 274.742 172.13 276.391C172.211 276.397 172.291 276.41 172.371 276.429C173.204 276.623 173.772 277.473 174.533 277.851C176.138 278.65 178.078 278.64 179.787 278.236C183.674 277.314 186.907 274.601 189.036 271.285C191.592 267.307 192.531 262.625 192.501 257.942C192.466 252.671 191.612 247.631 190.424 242.543L190.348 242.218C189.348 237.978 188.722 228.663 188.464 228.622ZM79.6104 217.987C79.6326 219.405 79.0562 220.921 78.7396 222.299C78.3986 223.783 78.0584 225.267 77.7136 226.751L77.4035 228.08C77.1453 229.188 76.8908 230.297 76.6626 231.411C76.475 232.327 76.3964 233.535 76.089 234.545C79.7454 233.065 83.4075 231.601 87.0635 230.126C91.5677 228.309 96.0931 226.542 100.608 224.754C105.106 222.974 109.578 220.949 114.167 219.428C115.259 219.064 115.999 220.808 114.953 221.292C110.292 223.454 105.361 225.147 100.587 227.041L93.6801 229.784C87.3486 232.297 81.0128 234.798 74.6452 237.213C70.3079 238.857 65.9874 240.55 61.6227 242.112C59.5417 242.856 57.4419 243.56 55.3712 244.331C53.6367 244.978 51.7607 245.938 51.1184 247.802C51.0846 247.899 50.9515 247.859 50.9663 247.759C51.2262 245.954 52.5658 244.826 54.0762 243.972C56.0808 242.836 58.2826 242.009 60.3987 241.098L60.6867 240.973C65.0078 239.088 69.3637 237.279 73.7325 235.5C73.6892 235.394 73.6636 235.281 73.6617 235.163L73.6493 235.166C73.5698 234.358 73.9402 233.638 74.2066 232.886L74.9708 230.729C75.4799 229.293 75.9367 227.839 76.4072 226.39C76.8992 224.876 77.3959 223.363 77.8917 221.85C78.3117 220.568 78.594 219.04 79.3125 217.894C79.3991 217.756 79.6379 217.834 79.6104 217.987ZM163.756 214.799L163.701 215.075C163.638 215.396 163.578 215.721 163.564 216.046C163.521 216.898 163.618 217.749 163.845 218.572C164.066 219.385 164.377 220.172 164.819 220.892C165.237 221.571 165.843 222.104 166.23 222.799C166.27 222.873 166.295 222.947 166.306 223.019C166.454 222.957 166.6 222.902 166.741 222.858C167.92 222.484 169.124 222.171 170.345 221.937L170.151 221.923L170.026 221.913C167.986 221.741 166.061 221.073 166.477 218.69C166.712 217.343 167.769 216.44 168.902 215.799L169.044 215.721C169.105 215.687 169.169 215.653 169.23 215.624C168.205 215.45 167.462 215.237 166.204 215.025C165.389 214.888 164.571 214.812 163.756 214.799ZM70.5466 185.446C72.5528 189.501 74.0621 193.813 75.2008 198.187C75.7506 200.3 76.2171 202.433 76.5923 204.583L76.7155 205.301L76.7855 205.691C77.1359 207.608 77.581 209.684 77.0663 211.554C76.8984 212.165 75.8843 212.407 75.6003 211.746C74.7439 209.751 74.8643 207.457 74.616 205.322C74.3551 203.082 73.9991 200.852 73.5555 198.641C72.7033 194.392 71.5072 190.242 70.1739 186.124L70.0252 185.666C69.9119 185.361 70.405 185.16 70.5466 185.446ZM147.659 203.587C147.061 203.868 146.463 204.126 145.935 204.384C145.895 204.405 145.853 204.424 145.811 204.445C146.408 204.344 147.008 204.249 147.608 204.16C147.602 203.965 147.621 203.773 147.659 203.587ZM171.054 201.556C170.964 201.585 170.884 201.632 170.815 201.697L170.782 201.731C170.699 201.808 170.641 201.898 170.607 202.003C170.554 202.104 170.53 202.212 170.534 202.329L170.564 202.553C170.605 202.697 170.677 202.821 170.782 202.926L170.953 203.059C171.068 203.125 171.191 203.163 171.323 203.172L171.379 203.174L171.55 203.174C171.648 203.171 171.74 203.147 171.827 203.101C171.916 203.072 171.996 203.025 172.065 202.96L172.098 202.926C172.181 202.85 172.239 202.759 172.273 202.654C172.319 202.568 172.343 202.476 172.346 202.378L172.346 202.329L172.316 202.104C172.281 201.978 172.221 201.868 172.136 201.771L172.098 201.731L171.928 201.599C171.812 201.532 171.689 201.494 171.558 201.485L171.501 201.483H171.379C171.263 201.479 171.154 201.503 171.054 201.556ZM165.557 201.27C165.108 201.353 164.853 201.897 164.967 202.31C165.092 202.767 165.526 202.97 165.962 202.908L166.006 202.9C166.517 202.806 167.017 202.843 167.504 203.022C167.932 203.18 168.43 202.845 168.543 202.432C168.673 201.959 168.383 201.55 167.953 201.392C167.182 201.107 166.355 201.123 165.557 201.27ZM76.5473 171.247C77.5696 172.745 78.2078 174.738 78.8375 176.45L78.9004 176.621C79.5697 178.42 80.2154 180.234 80.8175 182.058C82.0194 185.699 83.5857 189.508 83.8752 193.354C83.9286 194.064 82.8429 194.348 82.5281 193.719C81.6237 191.911 81.1373 190.025 80.6022 188.087C80.0918 186.237 79.56 184.395 79.028 182.552C78.4963 180.71 77.9818 178.862 77.4581 177.018C76.9487 175.224 76.2395 173.229 76.1229 171.362C76.1077 171.119 76.4299 171.074 76.5473 171.247ZM99.6197 159.182C100.984 160.129 102.102 161.515 103.257 162.7C104.428 163.903 105.584 165.117 106.729 166.345C108.643 168.397 110.521 170.483 112.462 172.51C116.329 176.55 120.704 180.268 126.041 182.166C127.332 182.626 126.766 184.699 125.472 184.23C120.013 182.25 115.491 178.589 111.502 174.448C109.436 172.303 107.54 170.011 105.692 167.678C104.827 166.587 103.968 165.492 103.122 164.386L102.616 163.722C101.552 162.317 100.25 160.917 99.4708 159.331C99.4271 159.242 99.523 159.115 99.6197 159.182Z" fill="black"/>
<path fill-rule="evenodd" clip-rule="evenodd" d="M170.447 115.557C166.878 99.369 166.182 81.5919 156.761 67.4576C152.644 61.6943 146.03 54.1791 138.302 56.5477C138.62 53.135 138.921 49.7209 139.199 46.3046C139.358 44.3505 140.089 41.7469 138.436 40.2444C135.707 38.0396 131.189 41.4133 129.079 43.2984C124.509 47.6763 122.704 51.9284 116.684 54.8523C114.271 53.1319 111.919 51.3267 109.47 49.6528C106.974 47.9472 103.404 45.1767 100.814 48.3253C98.6193 50.9943 100.021 55.2012 100.892 58.1377C101.337 59.6396 101.779 61.2788 102.398 62.8233C102.45 63.9974 102.541 65.1693 102.674 66.3379C98.2149 67.1317 93.6253 67.7996 89.3647 69.3574C87.0412 70.6165 87.2461 73.4758 88.8944 75.1873C91.3612 77.5771 94.4827 79.4458 97.8904 80.7002C97.2716 82.8424 95.7883 84.659 93.9232 85.8468C93.2977 86.2435 92.9467 86.8253 92.8198 87.4461C91.8638 87.9214 90.8402 88.2642 89.7589 88.4868C88.4254 88.7621 87.6549 90.3367 87.9986 91.5881C88.9671 94.6294 92.3799 92.8911 94.597 92.6764C94.6637 94.8002 94.6984 97.0133 95.6624 98.9807C90.5098 100.333 86.0461 105.266 87.2375 110.823C88.3196 116.135 94.0519 117.759 98.5895 118.966C98.9332 119.168 98.9322 119.367 99.0414 119.869C99.7901 123.313 99.1597 127.102 97.9794 130.371C97.6576 131.263 98.1304 132.378 98.8451 132.912C102.54 135.266 103.766 128.098 107.978 132.661C107.664 132.614 106.882 132.222 106.922 132.789C112.387 142.384 128.523 142.973 138.41 143.209C139.596 143.786 140.962 143.459 142.319 143.09C143.614 143.02 144.908 142.923 146.198 142.791C148.553 142.366 152.696 142.87 152.844 139.551C158.928 137.151 164.158 133.003 167.725 127.508C170.371 123.862 171.416 120.002 170.447 115.557V115.557Z" fill="white"/>
<path fill-rule="evenodd" clip-rule="evenodd" d="M133.554 39.0317L133.909 38.8765C135.134 38.3461 136.471 37.8375 137.811 38.1275C139.355 38.4614 140.248 39.7898 140.63 41.2379C141.072 42.9131 141.27 44.6963 141.391 46.4205C141.517 48.2062 141.468 49.9881 141.334 51.771C141.222 53.2621 140.99 54.9901 140.435 56.4353C140.459 56.4142 140.487 56.3985 140.521 56.3949C142.704 56.1711 144.717 56.3015 146.802 57.0051C148.745 57.6605 150.628 58.5801 152.318 59.7419C155.97 62.251 158.795 66.0405 160.764 69.9638C164.762 77.9345 165.606 86.9512 166.726 95.6678L166.76 95.9318C167.363 100.593 168.164 105.183 169.449 109.705L169.671 110.476C170.85 114.612 171.554 118.636 170.614 122.918C168.795 131.199 162.385 137.449 154.97 141.057C151.184 142.899 147.088 144.259 142.95 145.042C138.707 145.846 134.114 145.981 130.244 143.785C128.326 142.696 130.015 139.915 131.954 140.859C135.955 142.807 140.489 142.166 144.642 141.095C148.773 140.029 152.825 138.537 156.485 136.322C162.766 132.52 168.051 125.957 168.224 118.335C168.322 114.046 166.49 109.95 165.606 105.809C164.828 102.161 164.345 98.4582 163.889 94.7563L163.551 92.0065C162.57 84.1205 161.342 76.0021 157.293 69.0324C153.72 62.8802 147.565 57.9881 140.481 56.6868C140.438 56.6792 140.41 56.6587 140.393 56.6327C140.177 57.8 138.891 58.8884 138.068 59.5601C136.902 60.5125 135.489 61.2025 133.952 61.1717C130.989 61.1123 128.445 58.8134 126.413 56.8882C126.184 56.6714 126.432 56.3687 126.693 56.408C129.05 56.7629 131.071 58.6788 133.488 58.6503C134.731 58.6355 135.684 57.968 136.496 57.0806C136.799 56.7487 137.066 56.3482 137.354 55.9801C137.425 55.0129 137.699 54.0646 137.821 53.1019C137.936 52.2036 138.034 51.2917 138.092 50.3867C138.21 48.5399 138.173 46.6794 137.969 44.8396C137.881 44.0499 137.77 43.2529 137.597 42.4752L137.517 42.1247C137.41 41.6429 137.34 41.2039 136.758 41.2534C135.464 41.3629 134.017 42.1527 132.885 42.7487C128.498 45.0602 125.308 48.6344 122.953 52.8333C123.101 52.9072 123.242 53.0047 123.374 53.1315C123.64 53.3866 123.776 53.8359 123.654 54.1916C123.184 55.5662 121.513 55.6064 120.337 56.1447C119.056 56.731 117.853 57.4847 116.713 58.3102C114.47 59.9351 112.409 61.844 110.449 63.7966C107.363 66.8714 104.497 70.1437 101.729 73.501L101.14 74.8171C100.552 76.133 99.9772 77.4534 99.5013 78.8241C98.7268 81.053 98.078 83.3315 97.5792 85.638C97.0772 87.9595 96.75 90.3342 96.626 92.7062C96.5153 94.8226 96.796 96.9376 96.7842 99.0418C96.9722 99.3937 97.0403 99.7904 96.9518 100.195C97.5437 100.362 98.1171 100.618 98.6556 100.97C98.7868 101.057 98.7036 101.262 98.5487 101.224C97.8659 101.056 97.1829 101.018 96.514 101.083C96.1591 101.521 95.5844 101.8 95.0269 101.788L94.789 101.783V101.783C94.6147 101.779 94.4419 101.751 94.275 101.703C93.334 102.137 92.4682 102.762 91.7353 103.508C89.9732 105.303 89.1222 107.654 89.2472 110.166C89.371 112.644 90.6902 114.879 92.8751 116.069C93.8497 116.599 94.9327 116.879 96.0406 116.899C97.1064 116.918 98.5052 116.594 99.3809 117.289C99.4794 117.367 99.5442 117.471 99.5841 117.586C99.6452 117.328 99.7101 117.071 99.7808 116.814C99.8349 116.619 100.161 116.596 100.201 116.814L100.252 117.1C100.986 121.238 101.244 125.498 104.159 128.81C105.523 130.36 107.167 131.757 108.853 132.943L109.132 133.138C109.853 133.635 110.631 134.118 111.49 134.298C112.444 134.499 113.234 134.444 114.111 134.968C114.524 135.215 114.777 135.76 114.625 136.233C113.652 139.266 109.814 137.903 107.879 136.704C106.804 136.037 105.757 135.232 104.784 134.344C103.936 134.861 102.929 135.195 102.063 135.324C100.728 135.524 99.3106 135.246 98.2464 134.384C97.1206 133.472 96.7354 132.144 96.9266 130.735C97.0217 130.034 97.2036 129.35 97.3995 128.671L97.5615 128.116C97.7977 127.309 97.9823 126.475 98.4585 125.77C98.6989 125.414 99.2696 125.448 99.3932 125.892C99.676 126.909 99.5536 128.057 99.4804 129.117L99.4646 129.36C99.4166 130.157 99.0771 131.379 99.7756 131.97C100.617 132.681 101.538 132.356 102.433 131.866C102.342 131.755 102.252 131.643 102.163 131.531C99.2647 127.845 98.5439 123.257 99.3378 118.772C98.5897 119.754 96.6397 119.967 95.6049 119.89C93.9803 119.771 92.3816 119.277 90.9978 118.408C88.0994 116.589 86.4693 113.399 86.4 110.006C86.3324 106.711 87.806 103.379 90.5233 101.46C91.2412 100.953 92.0398 100.559 92.8734 100.3C92.4682 98.6904 92.4253 96.9121 92.5132 95.172C91.5412 95.3043 90.4889 95.1325 89.61 94.8332L89.4736 94.7855C88.1191 94.3002 86.3988 93.3248 86.1452 91.8022C85.833 89.9297 88.143 88.8535 89.4832 88.1055C90.1101 87.7558 90.7512 87.4287 91.4166 87.1587L91.617 87.0794C92.1915 86.8583 92.8677 86.446 93.4508 86.7744C93.4925 86.7979 93.5026 86.8425 93.4965 86.8862C93.3811 87.6989 92.0497 88.3904 91.4577 88.9029C91.0031 89.2963 90.5637 89.708 90.142 90.1368C89.8686 90.4149 89.4575 91.1177 89.1068 91.3149C89.2696 91.4 89.4649 91.6097 89.6009 91.6902C89.9841 91.9162 90.3883 92.0755 90.8208 92.1787C91.4637 92.3325 92.1076 92.2666 92.7513 92.252C93.0127 89.6892 93.4872 87.1823 94.2511 84.7203C95.5325 80.5897 97.6327 76.2382 100.629 72.9726C102.826 68.8551 105.663 65.0941 108.904 61.7309C110.983 59.5741 113.179 57.4813 115.614 55.7288C116.694 54.9519 117.829 54.2519 119.034 53.688L119.435 53.5042C120.104 53.1945 120.917 52.7925 121.694 52.6775C122.195 50.6849 123.09 48.7791 124.175 47.0518C125.67 44.6718 127.637 42.6644 129.94 41.0604C131.075 40.2687 132.286 39.5879 133.554 39.0317ZM93.617 108.433C95.5486 107.135 97.9176 106.628 100.226 106.819C101.371 106.914 102.504 107.183 103.577 107.593L104.019 107.768C105.044 108.179 106.144 108.686 106.181 109.926C106.195 110.416 105.833 110.806 105.396 110.958C104.329 111.329 103.465 110.441 102.584 109.968C101.695 109.49 100.749 109.175 99.7757 108.92C99.6823 108.896 99.5887 108.874 99.4953 108.851C99.546 108.953 99.5748 109.065 99.5648 109.187C99.5408 109.477 99.4565 109.692 99.3745 109.964C99.3498 110.046 99.2896 110.55 99.2279 110.612C99.2479 110.783 99.25 110.945 99.2553 111.117C99.2701 111.626 99.2074 112.056 98.9475 112.507C98.3002 113.63 96.4497 113.734 95.83 112.507C95.2104 111.281 95.6946 110.081 96.6362 109.199C96.8929 108.959 97.2352 108.715 97.607 108.546C96.3014 108.427 94.9812 108.483 93.6768 108.655C93.5496 108.672 93.5302 108.492 93.617 108.433ZM93.7325 67.2948C96.3818 66.8442 99.1486 66.7543 101.822 67.0208C101.968 67.0356 102.023 67.2576 101.859 67.2933C97.7935 68.1862 93.5787 68.488 89.9511 70.725L89.7841 70.8296C89.436 71.0511 88.6076 71.4693 88.4352 71.8633C88.2317 72.3283 88.7827 72.926 89.039 73.2616C89.6151 74.0153 90.3309 74.6732 91.121 75.1967C91.9558 75.7496 92.8532 76.1763 93.8185 76.4458C94.277 76.5739 94.7525 76.639 95.2057 76.7848C95.7216 76.9505 95.8881 77.2149 96.2789 77.5605C96.7294 77.9582 96.5781 78.7216 96.0924 79.0072L95.956 79.0864C95.3178 79.4518 94.963 79.5595 94.1523 79.4165C93.5181 79.3045 92.9124 79.0828 92.3187 78.8364C91.228 78.3833 90.2325 77.7901 89.3139 77.0514L89.1767 76.9395C87.5365 75.5831 84.7572 72.6161 86.5879 70.4561C88.2036 68.5502 91.3788 67.6951 93.7325 67.2948ZM100.257 46.7441C102.798 43.7497 106.387 45.7943 108.933 47.5846C111.677 49.5138 114.058 51.7894 115.983 54.5389C116.106 54.7137 115.869 54.9263 115.699 54.8236C113.564 53.5363 111.407 52.3039 109.218 51.1108C108.319 50.6209 107.419 50.1428 106.499 49.6951L106.007 49.4586C105.239 49.0792 104.136 48.3869 103.317 48.8384C101.55 49.8124 102.641 53.0029 103.005 54.548L103.038 54.6938L104.148 59.7787V59.7787L104.654 62.068V62.068C104.834 62.2139 104.983 62.4089 105.089 62.6605C105.375 63.3404 105.142 64.2589 104.449 64.6157C102.403 65.6686 101.711 63.6122 101.326 62.0668C101.013 60.8114 100.696 59.5567 100.38 58.3023L99.8553 56.2292C99.0524 53.091 97.9125 49.5071 100.257 46.7441Z" fill="black"/>
<path fill-rule="evenodd" clip-rule="evenodd" d="M143.152 128.274C141.731 127.695 140.464 126.728 139.538 125.493C139.216 125.063 139.132 124.61 139.2 124.195C139.276 123.729 139.552 123.306 139.928 123.023C140.305 122.739 140.777 122.598 141.233 122.67C141.629 122.732 142.024 122.949 142.336 123.399L142.401 123.489C142.952 124.235 143.67 124.846 144.488 125.241C145.276 125.621 146.157 125.798 147.07 125.695C148.807 125.499 150.005 124.559 151.278 123.282C151.435 123.121 151.593 122.955 151.752 122.786C151.852 122.633 151.991 122.534 152.145 122.483C152.317 122.425 152.511 122.429 152.688 122.491C152.859 122.55 153.013 122.664 153.115 122.815C153.213 122.958 153.268 123.135 153.25 123.339C153.134 124.661 152.442 125.842 151.46 126.769C150.37 127.799 148.924 128.511 147.563 128.761C146.063 129.036 144.535 128.839 143.152 128.274V128.274ZM148.27 107.866C149.866 108.836 152.296 111.098 150.58 113.503C148.56 115.624 145.651 113.193 144.218 112.093C142.889 111.241 141.396 113.433 142.629 114.428C152.986 122.099 157.189 108.12 149.077 106.726C148.184 106.572 147.852 107.566 148.27 107.866ZM129.71 98.9429C129.886 96.7541 133.219 96.257 133.55 98.423C133.847 100.363 133.498 102.145 132.624 103.892C131.789 105.561 129.691 104.783 129.533 103.263C129.32 101.226 129.601 100.304 129.71 98.9429ZM155.076 97.9739C155.54 97.3652 156.211 96.9497 157.015 97.1845C159.526 97.9185 158.786 101.485 157.904 103.22C157.425 104.163 155.876 104.402 155.176 103.572C154.035 102.219 153.489 99.5157 154.939 98.1825C154.978 98.1136 155.022 98.044 155.076 97.9739ZM132.589 89.3654L132.985 89.2959C134.212 89.0836 135.738 88.8796 136.606 89.8665C137.066 90.3898 137.225 91.3624 136.606 91.8633C135.517 92.7446 134.314 92.4031 133.01 92.4777C131.935 92.5394 130.902 92.7174 129.866 93.0135C127.595 93.6629 125.744 94.8486 123.804 96.1505C123.549 96.3213 123.289 95.9956 123.411 95.7574C124.531 93.563 126.701 91.7604 128.875 90.6616C130.035 90.0751 131.305 89.5885 132.589 89.3654ZM152.787 88.3823L153.09 88.4445C156.394 89.1353 160.686 90.5153 162.251 93.7615C162.31 94.2205 162.247 94.3189 162.196 94.3832L162.179 94.4046C162.137 94.4595 162.103 94.5351 161.904 94.5976C161.849 94.5844 161.793 94.5705 161.737 94.5557C161.02 94.3677 160.453 94.1087 159.903 93.84L159.308 93.5465C158.617 93.2076 157.92 92.881 157.181 92.6399C155.604 92.1255 153.983 91.7631 152.336 91.5696C151.979 91.5277 151.636 91.4072 151.364 91.2006C151.107 91.0046 150.91 90.7332 150.821 90.3724C150.705 89.9056 150.738 89.5521 150.988 89.1309C151.177 88.8146 151.446 88.5953 151.755 88.4694C152.071 88.3411 152.43 88.3108 152.787 88.3823Z" fill="black"/>
<path fill-rule="evenodd" clip-rule="evenodd" d="M159.89 92.1487C164.848 92.1487 167.678 93.2155 168.715 93.2986L168.746 93.3009C169.178 93.3285 169.565 93.3645 169.971 93.5216C171.463 94.0967 171.707 95.6629 170.835 96.65C170.774 98.6924 171.043 101.079 170.582 103.128C170.014 111.766 165.953 113.224 163.645 113.756C162.486 114.023 161.112 114.129 159.881 113.847C157.782 113.769 155.705 113.111 153.929 111.966C151.455 110.37 149.618 107.917 149.022 105.005C148.739 103.617 148.607 102.173 148.761 100.762L148.784 100.568C147.98 100.183 147.048 100.11 146.087 100.076C145.629 100.06 145.176 100.045 144.737 100.065C144.308 100.113 143.883 100.177 143.458 100.264C142.993 100.404 142.554 100.635 142.149 101.002L142.121 101.537C142.045 102.874 141.869 104.215 141.598 105.527C141.199 107.463 140.556 109.311 139.188 110.684C138.725 111.376 138.152 111.993 137.456 112.528C134.93 114.475 131.497 115.189 128.346 114.92C121.949 114.374 118.252 109.294 117.4 107.123L117.349 106.991C116.733 105.377 116.243 103.283 114.298 102.936L113.884 102.862C112.997 102.695 112.178 102.463 111.657 101.597C111.429 101.218 111.312 100.796 111.283 100.364C110.98 100.388 110.676 100.41 110.374 100.432C107.964 100.941 93.5074 101.374 92.3535 101.374C92.3535 101.374 90.1354 102.308 89.199 101.584C88.5499 101.081 88.3363 100.41 88.6936 99.6506C89.2328 98.5075 91.7201 97.8199 92.8246 97.6021C92.8246 97.6021 110.648 97.7502 111.931 97.5069C112.725 96.6882 114.144 96.8002 115.331 96.6708C116.313 95.9702 117.687 95.501 118.772 95.1869C118.993 95.1031 119.212 95.022 119.425 94.9456C121.415 94.2368 123.483 93.8614 125.582 93.6598C127.747 93.4539 129.919 93.5471 132.071 93.842C132.978 93.9651 133.877 94.1243 134.769 94.3325C136.367 94.5432 137.955 94.8902 139.553 95.3019L139.873 95.3851C141.556 95.8265 143.286 96.2083 145.028 95.9091C146.446 95.6671 147.81 95.121 149.118 94.5305L149.288 94.4532C152.164 93.1398 156.654 92.1487 159.89 92.1487ZM134.596 96.9511C133.535 96.7177 133.082 98.3541 134.146 98.5882C134.9 98.754 135.539 99.1342 135.971 99.7783L136.016 99.8484C136.595 100.77 138.059 99.9192 137.476 98.9914C136.82 97.9473 135.801 97.216 134.596 96.9511ZM165.671 95.9365C165.297 95.6729 164.731 95.8686 164.514 96.241C164.275 96.6511 164.431 97.1078 164.782 97.3761L164.817 97.4023C165.139 97.6288 165.451 98.0349 165.491 98.451L165.494 98.5031C165.536 99.592 167.228 99.5975 167.186 98.5031C167.144 97.4324 166.525 96.5379 165.671 95.9365Z" fill="black"/>
</svg>
